# Blender v2.79 (sub 0) OBJ File: 'pineTree.blend'
# www.blender.org
mtllib pineTree.mtl
o Cylinder
v 0.000000 -0.204926 -0.204926
v 0.000000 0.204926 -0.204926
v 0.177471 -0.204926 -0.102463
v 0.177471 0.204926 -0.102463
v 0.177471 -0.204926 0.102463
v 0.177471 0.204926 0.102463
v -0.000000 -0.204926 0.204926
v -0.000000 0.204926 0.204926
v -0.177471 -0.204926 0.102463
v -0.177471 0.204926 0.102463
v -0.177471 -0.204926 -0.102463
v -0.177471 0.204926 -0.102463
v 0.000000 0.130520 -1.082555
v 0.937520 0.209439 -0.541278
v 0.937520 0.130520 0.541278
v -0.000000 0.209439 1.082555
v -0.937520 0.130520 0.541278
v -0.937520 0.209439 -0.541278
v 0.000000 0.695199 -0.504618
v 0.437012 0.695199 -0.252309
v 0.437012 0.695199 0.252309
v -0.000000 0.695199 0.504619
v -0.437012 0.695199 0.252309
v -0.437012 0.695199 -0.252309
v 0.000000 0.625305 -0.900774
v 0.780093 0.695199 -0.450387
v 0.780093 0.625305 0.450387
v -0.000000 0.695199 0.900774
v -0.780093 0.625305 0.450387
v -0.780093 0.695199 -0.450387
v -0.000000 1.136888 -0.367387
v 0.318166 1.136888 -0.183693
v 0.318166 1.136888 0.183693
v -0.000000 1.136888 0.367387
v -0.318167 1.136888 0.183693
v -0.318167 1.136888 -0.183693
v 0.000000 1.066995 -0.724603
v 0.627524 1.136888 -0.362301
v 0.627524 1.066995 0.362301
v -0.000000 1.136888 0.724603
v -0.627524 1.066995 0.362301
v -0.627524 1.136888 -0.362301
v 0.000000 1.619669 -0.288512
v 0.249858 1.619669 -0.144256
v 0.249858 1.619669 0.144256
v -0.000000 1.619669 0.288512
v -0.249858 1.619669 0.144256
v -0.249858 1.619669 -0.144256
v 0.000000 1.549775 -0.529942
v 0.458943 1.619669 -0.264971
v 0.458943 1.549775 0.264971
v -0.000000 1.619669 0.529942
v -0.458943 1.549775 0.264971
v -0.458943 1.619669 -0.264971
v -0.000000 2.051111 -0.165536
v 0.143359 2.051111 -0.082768
v 0.143359 2.051111 0.082768
v -0.000000 2.051111 0.165536
v -0.143359 2.051111 0.082768
v -0.143359 2.051111 -0.082768
v 0.000000 1.981218 -0.403401
v 0.349356 2.051111 -0.201701
v 0.349356 1.981218 0.201701
v -0.000000 2.051111 0.403401
v -0.349356 1.981218 0.201701
v -0.349356 2.051111 -0.201701
v -0.000000 2.576660 -0.029930
v 0.025920 2.576660 -0.014965
v 0.025920 2.576660 0.014965
v -0.000000 2.576660 0.029930
v -0.025920 2.576660 0.014965
v -0.025920 2.576660 -0.014965
vn 0.5000 0.0000 -0.8660
vn 1.0000 0.0000 0.0000
vn 0.5000 0.0000 0.8660
vn -0.5000 0.0000 0.8660
vn -1.0000 0.0000 0.0000
vn -0.5000 0.0000 -0.8660
vn 0.0000 -1.0000 0.0000
vn -0.0458 -0.9971 -0.0611
vn -0.3321 0.6895 -0.6437
vn 0.0458 -0.9971 -0.0611
vn 0.0300 -0.9971 0.0703
vn -0.0759 -0.9971 -0.0091
vn -0.0300 -0.9971 0.0703
vn 0.0759 -0.9971 -0.0091
vn 0.1012 -0.9936 -0.0494
vn -0.3914 0.6895 0.6094
vn 0.7235 0.6895 0.0343
vn -0.7235 0.6895 0.0343
vn 0.3914 0.6895 0.6094
vn 0.3321 0.6895 -0.6437
vn -0.3256 0.6954 -0.6406
vn -0.0934 -0.9936 -0.0629
vn -0.0078 -0.9936 0.1124
vn 0.0078 -0.9936 0.1124
vn 0.0934 -0.9936 -0.0629
vn -0.1012 -0.9936 -0.0494
vn 0.1120 -0.9917 -0.0635
vn -0.3920 0.6954 0.6023
vn 0.7176 0.6954 0.0383
vn -0.7176 0.6954 0.0383
vn 0.3920 0.6954 0.6023
vn 0.3256 0.6954 -0.6406
vn -0.3684 0.5888 -0.7194
vn -0.1110 -0.9917 -0.0653
vn -0.0010 -0.9917 0.1288
vn 0.0010 -0.9917 0.1288
vn 0.1110 -0.9917 -0.0653
vn -0.1120 -0.9917 -0.0635
vn 0.1643 -0.9828 -0.0839
vn -0.4388 0.5888 0.6788
vn 0.8072 0.5888 0.0406
vn -0.8072 0.5888 0.0406
vn 0.4388 0.5888 0.6788
vn 0.3684 0.5888 -0.7194
vn -0.4621 0.5595 0.6880
vn -0.1548 -0.9828 -0.1003
vn -0.0094 -0.9828 0.1842
vn 0.0094 -0.9828 0.1842
vn 0.1548 -0.9828 -0.1003
vn -0.1643 -0.9828 -0.0839
vn -0.1872 -0.9788 -0.0837
vn 0.8269 0.5595 0.0562
vn -0.8269 0.5595 0.0562
vn 0.4621 0.5595 0.6880
vn 0.3648 0.5595 -0.7442
vn -0.3648 0.5595 -0.7442
vn 0.8633 0.4982 0.0804
vn 0.0211 -0.9788 0.2039
vn -0.0211 -0.9788 0.2039
vn 0.1872 -0.9788 -0.0837
vn -0.1660 -0.9788 -0.1202
vn 0.1660 -0.9788 -0.1202
vn 0.0000 1.0000 0.0000
vn -0.8633 0.4982 0.0804
vn 0.5013 0.4982 0.7075
vn 0.3621 0.4982 -0.7878
vn -0.3621 0.4982 -0.7878
vn -0.5013 0.4982 0.7075
usemtl Wood001
s off
f 1//1 2//1 4//1 3//1
f 3//2 4//2 6//2 5//2
f 5//3 6//3 8//3 7//3
f 7//4 8//4 10//4 9//4
f 9//5 10//5 12//5 11//5
f 11//6 12//6 2//6 1//6
f 1//7 3//7 5//7 7//7 9//7 11//7
usemtl Leaf001
f 6//8 4//8 14//8 15//8
f 13//9 18//9 24//9 19//9
f 12//10 10//10 17//10 18//10
f 4//11 2//11 13//11 14//11
f 8//12 6//12 15//12 16//12
f 2//13 12//13 18//13 13//13
f 10//14 8//14 16//14 17//14
f 24//15 23//15 29//15 30//15
f 17//16 16//16 22//16 23//16
f 15//17 14//17 20//17 21//17
f 18//18 17//18 23//18 24//18
f 16//19 15//19 21//19 22//19
f 14//20 13//20 19//20 20//20
f 25//21 30//21 36//21 31//21
f 22//22 21//22 27//22 28//22
f 20//23 19//23 25//23 26//23
f 19//24 24//24 30//24 25//24
f 23//25 22//25 28//25 29//25
f 21//26 20//26 26//26 27//26
f 36//27 35//27 41//27 42//27
f 29//28 28//28 34//28 35//28
f 27//29 26//29 32//29 33//29
f 30//30 29//30 35//30 36//30
f 28//31 27//31 33//31 34//31
f 26//32 25//32 31//32 32//32
f 37//33 42//33 48//33 43//33
f 34//34 33//34 39//34 40//34
f 32//35 31//35 37//35 38//35
f 31//36 36//36 42//36 37//36
f 35//37 34//37 40//37 41//37
f 33//38 32//38 38//38 39//38
f 48//39 47//39 53//39 54//39
f 41//40 40//40 46//40 47//40
f 39//41 38//41 44//41 45//41
f 42//42 41//42 47//42 48//42
f 40//43 39//43 45//43 46//43
f 38//44 37//44 43//44 44//44
f 53//45 52//45 58//45 59//45
f 46//46 45//46 51//46 52//46
f 44//47 43//47 49//47 50//47
f 43//48 48//48 54//48 49//48
f 47//49 46//49 52//49 53//49
f 45//50 44//50 50//50 51//50
f 58//51 57//51 63//51 64//51
f 51//52 50//52 56//52 57//52
f 54//53 53//53 59//53 60//53
f 52//54 51//54 57//54 58//54
f 50//55 49//55 55//55 56//55
f 49//56 54//56 60//56 55//56
f 63//57 62//57 68//57 69//57
f 56//58 55//58 61//58 62//58
f 55//59 60//59 66//59 61//59
f 59//60 58//60 64//60 65//60
f 57//61 56//61 62//61 63//61
f 60//62 59//62 65//62 66//62
f 68//63 67//63 72//63 71//63 70//63 69//63
f 66//64 65//64 71//64 72//64
f 64//65 63//65 69//65 70//65
f 62//66 61//66 67//66 68//66
f 61//67 66//67 72//67 67//67
f 65//68 64//68 70//68 71//68
